inDegrees=no
num_controls=7
num_derivatives=13
num_iterations=133
num_multipliers=7
num_parameters=0
num_slacks=7
num_states=26
objective=5.229724
objective_accelerations=0.634273
objective_balance=0.023416
objective_effort=0.617991
objective_height=3.882599
objective_ligament=0.071444
solver_duration=1407.520836
status=Solve_Succeeded
success=true
DataType=double
version=3
OpenSimVersion=4.4-2022-07-23-0e9fedc
endheader
time	/jointset/ground_pelvis/pelvis_tilt/value	/jointset/ground_pelvis/pelvis_tx/value	/jointset/ground_pelvis/pelvis_ty/value	/jointset/hip_l/hip_flexion_l/value	/jointset/hip_l/hip_adduction_l/value	/jointset/hip_l/hip_rotation_l/value	/jointset/back/lumbar_extension/value	/jointset/patellofemoral_l/patellar_flexion_l/value	/jointset/knee_l/knee_flexion_l/value	/jointset/knee_l/knee_adduction_l/value	/jointset/knee_l/knee_rotation_l/value	/jointset/ankle_l/ankle_angle_l/value	/jointset/subtalar_l/subtalar_angle_l/value	/jointset/ground_pelvis/pelvis_tilt/speed	/jointset/ground_pelvis/pelvis_tx/speed	/jointset/ground_pelvis/pelvis_ty/speed	/jointset/hip_l/hip_flexion_l/speed	/jointset/hip_l/hip_adduction_l/speed	/jointset/hip_l/hip_rotation_l/speed	/jointset/back/lumbar_extension/speed	/jointset/patellofemoral_l/patellar_flexion_l/speed	/jointset/knee_l/knee_flexion_l/speed	/jointset/knee_l/knee_adduction_l/speed	/jointset/knee_l/knee_rotation_l/speed	/jointset/ankle_l/ankle_angle_l/speed	/jointset/subtalar_l/subtalar_angle_l/speed	/forceset/tau_hip_flexion_l	/forceset/tau_hip_adduction_l	/forceset/tau_hip_rotation_l	/forceset/tau_knee_flexion_l	/forceset/tau_ankle_angle_l	/forceset/tau_subtalar_angle_l	/forceset/tau_lumbar_extension	lambda_cid13_p0	lambda_cid13_p1	lambda_cid13_p2	lambda_cid13_p3	lambda_cid13_p4	lambda_cid13_p5	lambda_cid14_p0	/jointset/ground_pelvis/pelvis_tilt/accel	/jointset/ground_pelvis/pelvis_tx/accel	/jointset/ground_pelvis/pelvis_ty/accel	/jointset/hip_l/hip_flexion_l/accel	/jointset/hip_l/hip_adduction_l/accel	/jointset/hip_l/hip_rotation_l/accel	/jointset/back/lumbar_extension/accel	/jointset/patellofemoral_l/patellar_flexion_l/accel	/jointset/knee_l/knee_flexion_l/accel	/jointset/knee_l/knee_adduction_l/accel	/jointset/knee_l/knee_rotation_l/accel	/jointset/ankle_l/ankle_angle_l/accel	/jointset/subtalar_l/subtalar_angle_l/accel	gamma_cid13_p0	gamma_cid13_p1	gamma_cid13_p2	gamma_cid13_p3	gamma_cid13_p4	gamma_cid13_p5	gamma_cid14_p0
0.5	-0.1530503879358002	-0.0761433477454888	0.7576566211503842	1.152821566721896	-0.3181533499014025	-0.06040366849663124	-0.8095070845345493	1.064080701116283	1.064080701116133	-0.04901949460969676	-0.174521507607495	0.1411202491370428	0.02346753672773602	-0.2482989675180757	-0.1956959713801726	-0.6087675955164972	2.176939559263407	0.00523239710685352	0.5609393471911517	-0.8099609863066176	2.164048211658279	2.164048211657787	0.3023575264271857	-2.950731430508905e-05	0.3812390579139518	0.1403211931057272	-0.3142567510890917	0.005305922763089325	-0.008032232117577648	-0.2706418651586866	0.1301041407000406	0.04767872195114881	0.3550053446887821	-1.850726657381061	-20.22269910382832	2.586847280416199	-16.92051026911092	-698.3961870161287	-74.08444424795741	-4.255502982900074	0.687826535849129	0.9587866239657473	-0.3275737469036274	-1.830523288661472	0.3028814983718665	-0.6553894960130794	2.195661901185601	-1.620482032113285	-1.620482032113286	-0.2231631059862469	0.032315105531522	-0.5948474188835223	0.2005801686644669	-1.195446138516928e-07	-1.228155433957557e-06	-3.505636970820117e-07	-2.00990645960475e-07	-1.771261989117685e-07	-2.000425385787742e-07	-1.555039781863962e-07
0.51	-0.1554985844866598	-0.07805237346035798	0.7515539415701226	1.17449650743465	-0.3180865828367478	-0.05482937332354208	-0.8174962792238115	1.085636953755636	1.0856369537556	-0.04600675819774507	-0.1745220030484125	0.1449018535028862	0.0248796422961844	-0.2412993658283002	-0.1861099578419788	-0.6116283529904074	2.157764571699629	0.008107241985275501	0.5538636881667468	-0.7878142748037017	2.146903390766636	2.146903390766237	0.3001802080683629	-6.674965414910167e-05	0.3750099256894168	0.142059852340493	-0.3218689348906756	0.004671587981120801	-0.007928840360875414	-0.2758780305584786	0.1307855257506367	0.04739618652649069	0.3623818732949541	-2.021388579132634	-19.93376828684561	2.385046646374821	-16.87725063336636	-704.7387771258783	-74.04671112882342	-3.598848843584456	0.7121625707112984	0.9583412658878943	-0.2443594588944427	-2.003597350238513	0.2779362193726194	-0.7421736633862331	2.233727285979804	-1.806295346083235	-1.806295346069304	-0.216680186382489	-0.02144284674807661	-0.6477970667582383	0.1547824870031181	-1.06329773124528e-07	-1.202990022874421e-06	-4.059956918493948e-07	-2.135070913515875e-07	-1.551156726132377e-07	-1.833517441888566e-07	-1.48040939605842e-07
0.52	-0.1578755579035774	-0.07986557253041671	0.7454268478728701	1.195971176099783	-0.3179914372759431	-0.04932753865228781	-0.8252620964958137	1.107012795540392	1.107012795540463	-0.04301612776648937	-0.174522810701286	0.1486189963579778	0.02630798919420442	-0.2340543407317427	-0.1765306424180816	-0.6136504189146802	2.136885149735755	0.01090809633553591	0.546447246833055	-0.7652855028553789	2.127966040739258	2.127966040738952	0.2979363302874359	-9.19497142217586e-05	0.3683467557640944	0.1435694590200749	-0.3294811186922276	0.004037253199059521	-0.007825448603790055	-0.2811141959582646	0.131466910801199	0.04711365110170618	0.3697584019011722	-2.194719267944599	-19.64820083175308	2.188156739809387	-16.87986532530134	-711.1397480169993	-74.03780111565457	-2.997390150113652	0.7369112172054693	0.9574470011065052	-0.1598354369760763	-2.171410168680858	0.2880833927396134	-0.7235459578704134	2.272073990266959	-1.978987859260383	-1.97898785926038	-0.2364749904070558	0.03472356148581623	-0.6816549590408825	0.1547696576277372	-1.5447724374875e-07	-1.03319655412966e-06	9.843545779730413e-08	-1.446675997313275e-07	-1.872401302845205e-07	-3.989946289025523e-09	-1.886478071287868e-07
0.53	-0.1601788741405311	-0.08158315425631021	0.7392837204384639	1.217228713476983	-0.3178688858132211	-0.04390039259197272	-0.8328009524190682	1.128190520006807	1.128190520006555	-0.04004950463072293	-0.1745234869398842	0.1522673144349729	0.02774996600570934	-0.2265719607797245	-0.1670010838407145	-0.6148352252969478	2.114356901339116	0.01358760836593314	0.538918512601729	-0.7424436217014579	2.107294223812044	2.107294223811519	0.2953872992479003	-4.886379390232188e-05	0.3612456699130716	0.1447833507176154	-0.3369616238044055	0.003577259291894166	-0.007773324847188234	-0.2859201566936277	0.1313046238518766	0.04667265442588991	0.3768391579532667	-2.63952290775676	-19.24724504704874	1.973972757686316	-16.48606851910809	-717.2900909976925	-73.81683985215402	-2.450850884265094	0.759421269385396	0.9483814223436633	-0.07686766106560171	-2.333369791155002	0.2557367478299046	-0.7772531906601006	2.296554191899535	-2.153930923984659	-2.153930924017543	-0.2644466113403742	-0.01165080444743868	-0.7350593756743534	0.09842505968465859	-1.713059547400959e-07	-8.93113986851464e-07	3.613546902325493e-07	-1.055996854349197e-07	-1.948643937808515e-07	1.002016901661638e-07	-2.019797020454855e-07
0.54	-0.1624062626009196	-0.08320590616917148	0.7331329320557924	1.23825300084703	-0.3177199689022631	-0.03855047708098792	-0.8401101277279914	1.149152995841045	1.149152995840454	-0.03710843769547027	-0.174523882701614	0.1558424768579474	0.02920282696096304	-0.2188687854202896	-0.1575646798116391	-0.6151826085677403	2.090235148302501	0.01618118598196202	0.5310011369745435	-0.7193493799897435	2.084916314303519	2.084916314302775	0.2928250901838075	-3.585434368300567e-05	0.353715624960396	0.1457462877698508	-0.3444421289165546	0.003117265384645868	-0.007721201090383111	-0.2907261174289878	0.1311423369025245	0.04623165774996456	0.383919914005401	-3.088482120573258	-18.85151609005897	1.767423528617436	-16.13561082541352	-723.5135651429138	-73.64696063456411	-1.959247988124912	0.7810702986887653	0.9388160914482634	0.007649185318955193	-2.490111096675987	0.2708965098659836	-0.8012742370422906	2.322546101825615	-2.320206375522658	-2.320206375522659	-0.2391105953184906	0.02870826746579936	-0.7674467793713223	0.1045787285667452	-1.534841231588977e-07	-7.859030552384037e-07	3.570692483061833e-07	-9.947053753937007e-08	-1.753820594665973e-07	1.212263394911101e-07	-1.851350315254862e-07
0.55	-0.1645556496988538	-0.0847347977175093	0.7269828694995889	1.259028254798386	-0.317545541168566	-0.03328127626162455	-0.8471871688676684	1.169883338386336	1.169883338386262	-0.03419329326948847	-0.1745240631021797	0.1593403796211631	0.03066410765369864	-0.2109812156012211	-0.1482323731192886	-0.614687585294965	2.064553629646241	0.01867884544980403	0.5227958836184983	-0.6960287833538645	2.060878898873181	2.060878898872819	0.2901712520618396	-9.244062131554264e-06	0.3458085071336359	0.1464580339126736	-0.3515047445750196	0.002456886058127025	-0.007672272577006906	-0.2957462623823792	0.1312197090800193	0.04567679740727326	0.3906286905379875	-3.459577865293556	-18.41787275406461	1.552434701377293	-15.78463580699744	-729.5949401970651	-73.43733625864868	-1.52279483649404	0.7966932866088936	0.9276072433162708	0.09174355394058842	-2.646495373245755	0.2353901268569247	-0.8367877291636016	2.341326133085198	-2.486468319682818	-2.486468319625569	-0.2835446958264142	-0.01163594047000676	-0.8108416554032397	0.04677512324943462	-1.365081692940902e-07	-6.936841265938117e-07	3.411970459443919e-07	-9.518601919813087e-08	-1.567668635286912e-07	1.353076576034294e-07	-1.690807266329668e-07
0.5600000000000001	-0.1666253425059717	-0.086170932341886	0.7208420201072498	1.279538828938564	-0.3173468989478657	-0.02809545534467852	-0.8540301021032606	1.190365114938746	1.190365114939181	-0.03130569207978248	-0.1745242320697299	0.1627575117318972	0.03213096632108426	-0.2029299272584398	-0.1390132950194113	-0.6133399757948248	2.037299186064186	0.02102408338219153	0.5143251564913411	-0.6725277991733398	2.035203115727109	2.035203115727129	0.2873164429322496	-3.356773937494004e-05	0.3375614944638832	0.1468618826998727	-0.3585673602334394	0.001796506731610679	-0.007623344063768506	-0.3007664073357718	0.1312970812575077	0.04512193706458464	0.3973374670706164	-3.836324725401949	-17.98891020977066	1.344668976143669	-15.47157878987658	-735.7683453367309	-73.27599528543864	-1.141873007425397	0.8138140034312502	0.916170372953677	0.1781664307919249	-2.80469608183517	0.240412202775055	-0.8543689912646691	2.358623610754743	-2.647879918669303	-2.647879918669269	-0.2793047968429414	0.01852147570682147	-0.8354257479697457	0.04299925744204258	-1.205472686889516e-07	-6.194556015113813e-07	3.114207310600901e-07	-9.311505632206412e-08	-1.391922336424026e-07	1.410569782605965e-07	-1.539748604934233e-07
0.5700000000000001	-0.1686138132158667	-0.0875155265480097	0.7147188979894679	1.299769197711398	-0.3171254329728435	-0.02299551115516399	-0.8606372752287584	1.210582108765063	1.210582108765594	-0.02844749771554925	-0.1745246379240495	0.1660906154262556	0.0336005076569357	-0.1947454179439287	-0.1299322865734739	-0.6111426674838166	2.008524472763631	0.0232469651106653	0.5056268867664481	-0.6488945078126805	2.007934233627533	2.007934233627555	0.2842914871624029	-4.818303242715747e-05	0.3290134349925187	0.1470007926191462	-0.3652384046559021	0.001115965141157581	-0.007587473938026896	-0.305679740506769	0.1311502684527352	0.04444219723927239	0.403606888302476	-4.277432093357392	-17.49420523155784	1.126149973664001	-14.98943677658246	-741.6338952379199	-73.00767842449476	-0.8169220468987073	0.8235715968662057	0.9000366366089029	0.2617542227563265	-2.95139149058369	0.2099128410311448	-0.8832108653044387	2.367529615619701	-2.805575655927484	-2.805575655927329	-0.3188489573810725	-0.01147416652088746	-0.8713942925554183	-0.007443935656150178	-1.054639043676984e-07	-5.491735125194436e-07	2.83049307232319e-07	-9.047717327871007e-08	-1.227600336006789e-07	1.44543639955614e-07	-1.393866950848648e-07
0.58	-0.1705198783923302	-0.08877011655843499	0.7086219971930963	1.319704312843956	-0.3168824008439065	-0.01798368064332163	-0.8670077458972678	1.230518577110318	1.230518577110938	-0.02562050450709127	-0.174525194158248	0.1693368588767352	0.03507008193301457	-0.1864488205732188	-0.1210124558797232	-0.6080957115127547	1.978248458006354	0.02533731416503457	0.4967024209534502	-0.6251873077760948	1.979098019514927	1.97909801951495	0.2810762117795345	-6.364371386454343e-05	0.3201894456877327	0.1468684707453761	-0.3719094490783195	0.0004354235507437618	-0.007551603812400298	-0.3105930736777666	0.1310034556479659	0.04376245741400985	0.4098763095343737	-4.725204420850497	-17.00385279854045	0.9146295342208791	-14.53945211022867	-747.6020590900058	-72.78454495173843	-0.5483803068204096	0.8362316146708973	0.883934822516404	0.3480959628027382	-3.104956373179708	0.2139056679541335	-0.8996082088856694	2.373405345940059	-2.961346321275442	-2.961346321275434	-0.3173687194473031	0.01835239802978833	-0.8906117146539893	-0.01124710116664834	-9.152337799755182e-08	-4.840309682034971e-07	2.565075089665414e-07	-8.710097559888887e-08	-1.078156491704817e-07	1.450835830022508e-07	-1.254727445817751e-07
